<?xml version="1.0" encoding="utf-8"?>
<!-- Svg Vector Icons : http://www.onlinewebfonts.com/icon -->
<!DOCTYPE svg PUBLIC "-//W3C//DTD SVG 1.1//EN" "http://www.w3.org/Graphics/SVG/1.1/DTD/svg11.dtd">
<svg fill="#828282" version="1.1" xmlns="http://www.w3.org/2000/svg" xmlns:xlink="http://www.w3.org/1999/xlink" x="0px" y="0px" viewBox="0 0 1000 1000" enable-background="new 0 0 1000 1000" xml:space="preserve">
<g><g transform="matrix(1 0 0 -1 0 800)"><path d="M757.9,27.2C912.6,27.2,990,78.9,990,182.4c0,84.7-49.1,138.5-147.4,161.5l-73.7,15.7c-40.8,10.5-61.2,32.4-61.2,65.9c0,38.7,25.6,58,76.8,58c56.4,0,86.2-22,89.4-65.9l112.9,12.5c-7.3,95.1-72.1,142.7-194.4,142.7c-131.7,0-197.6-54.4-197.6-163.1c0-77.4,42.9-126.5,128.6-147.4l76.8-14.1c52.3-12.5,78.4-36.1,78.4-70.6c0-40.8-40.2-61.2-120.7-61.2c-98.3,0-163.1,47.6-194.4,142.7l-37.6,112.9c-23,74.2-52.3,126.5-87.8,156.8c-33.5,29.3-88.3,43.9-164.6,43.9c-70,0-131.2-25.6-183.5-76.8c-53.3-51.2-80-119.7-80-205.4c0-80.5,25.1-144.3,75.3-191.3c49.1-48.1,109.2-72.1,180.3-72.1c69,0,124.4,16.7,166.2,50.2l-34.5,97.2c-36.6-36.6-78.9-54.9-127-54.9c-43.9,0-80.2,17-109,51c-28.7,34-43.1,75-43.1,123.1c0,64.8,16.2,111.8,48.6,141.1c33.5,30.3,70,45.5,109.8,45.5c43.9,0,75.8-11.5,95.6-34.5c17.8-23,35-59.6,51.7-109.8L460,224.7C500.8,93,600.1,27.2,757.9,27.2L757.9,27.2z"/></g></g>
</svg>