<?xml version="1.0" encoding="utf-8"?>
<!-- Svg Vector Icons : http://www.onlinewebfonts.com/icon -->
<!DOCTYPE svg PUBLIC "-//W3C//DTD SVG 1.1//EN" "http://www.w3.org/Graphics/SVG/1.1/DTD/svg11.dtd">
<svg fill="#828282" version="1.1" xmlns="http://www.w3.org/2000/svg" xmlns:xlink="http://www.w3.org/1999/xlink" x="0px" y="0px" viewBox="0 0 1000 1000" enable-background="new 0 0 1000 1000" xml:space="preserve">
<g><g><path d="M159,203.5c-8.4,0-15.7,3.1-19.3,8.8c-3.6,6.1-3.1,13.8,0.8,21.6l95.5,165.3c0.2,0.4,0.2,0.6,0,0.8l-150,265.2c-3.8,7.8-3.6,15.7,0,21.6c3.6,5.7,10,9.6,18.4,9.6h141.2c21.1,0,31.4-14.4,38.5-27.4c0,0,146.8-259.7,152.5-269.8c-0.6-1-97.2-169.4-97.2-169.4c-7.1-12.4-17.6-26.4-39.4-26.4H159z"/><path d="M752.6,10c-21.1,0-30.2,13.2-37.9,27c0,0-304.5,539.9-314.4,557.6C400.9,595.6,601,963,601,963c7.1,12.4,17.8,27,39.4,27h141.2c8.4,0,15.1-3.3,18.8-9c3.8-6.1,3.6-14-0.4-21.8L601,595c-0.2-0.4-0.2-0.6,0-1L913.9,40.8c3.8-7.8,4-15.7,0.4-21.8c-3.6-5.7-10.3-9-18.8-9H752.6L752.6,10z"/></g></g>
</svg>